<svg width="176" height="34" viewBox="0 0 176 34" fill="none" xmlns="http://www.w3.org/2000/svg">
<path d="M44.88 31.0001V30.6001L45.68 30.2801C46.2133 30.0934 46.56 29.8401 46.72 29.5201C46.9067 29.2001 47 28.7734 47 28.2401V7.3601C47 6.8268 46.92 6.4001 46.76 6.0801C46.6 5.7601 46.24 5.5068 45.68 5.3201L44.88 5.0001V4.6001H55.16V5.0001L54.36 5.3201C53.8267 5.5068 53.4667 5.7601 53.28 6.0801C53.12 6.4001 53.04 6.8268 53.04 7.3601V28.2401C53.04 28.7734 53.12 29.2001 53.28 29.5201C53.4667 29.8134 53.8267 30.0668 54.36 30.2801L55.16 30.6001V31.0001H44.88ZM56.8313 31.0001V30.6001L57.3913 30.4401C58.3246 30.1734 58.7913 29.5201 58.7913 28.4801V15.9601C58.7913 15.3734 58.6979 14.9468 58.5113 14.6801C58.3246 14.3868 57.9646 14.1868 57.4313 14.0801L56.8313 13.9201V13.5201L63.6713 11.2001L64.0713 11.6001L64.3913 14.0001C65.3246 13.1734 66.3779 12.4934 67.5513 11.9601C68.7246 11.4268 69.8846 11.1601 71.0313 11.1601C72.7913 11.1601 74.1379 11.6401 75.0713 12.6001C76.0313 13.5601 76.5113 15.0268 76.5113 17.0001V28.5201C76.5113 29.5601 77.0179 30.2134 78.0313 30.4801L78.3913 30.6001V31.0001H68.9513V30.6001L69.4713 30.4401C70.4046 30.1468 70.8713 29.4934 70.8713 28.4801V15.7201C70.8713 14.0134 70.0179 13.1601 68.3113 13.1601C67.1379 13.1601 65.8579 13.7468 64.4713 14.9201V28.5201C64.4713 29.5601 64.9379 30.2134 65.8713 30.4801L66.2313 30.6001V31.0001H56.8313ZM87.3609 31.6001C85.6543 31.6001 84.3209 31.1734 83.3609 30.3201C82.4276 29.4668 81.9609 28.1068 81.9609 26.2401V12.5601H79.2009V12.1601L80.1609 12.0001C80.9876 11.8134 81.6943 11.5468 82.2809 11.2001C82.8943 10.8534 83.4943 10.3868 84.0809 9.8001L87.3609 6.1601H87.7609L87.6409 11.7601H92.1209V12.5601H87.6009V26.9601C87.6009 27.8934 87.8009 28.6001 88.2009 29.0801C88.6276 29.5601 89.1609 29.8001 89.8009 29.8001C90.3609 29.8001 90.8543 29.6668 91.2809 29.4001C91.7076 29.1068 92.1343 28.7201 92.5609 28.2401L92.9609 28.6401C92.4276 29.5468 91.6943 30.2668 90.7609 30.8001C89.8276 31.3334 88.6943 31.6001 87.3609 31.6001ZM104.137 11.1601C105.87 11.1601 107.35 11.5201 108.577 12.2401C109.804 12.9334 110.737 13.8934 111.377 15.1201C112.044 16.3201 112.377 17.6934 112.377 19.2401C112.377 19.5334 112.364 19.8401 112.337 20.1601C112.31 20.4534 112.257 20.7201 112.177 20.9601H100.257C100.284 23.8401 100.79 25.9201 101.777 27.2001C102.79 28.4534 104.284 29.0801 106.257 29.0801C107.59 29.0801 108.67 28.8668 109.497 28.4401C110.324 28.0134 111.097 27.3868 111.817 26.5601L112.217 26.9201C111.39 28.3868 110.284 29.5334 108.897 30.3601C107.537 31.1868 105.897 31.6001 103.977 31.6001C102.084 31.6001 100.404 31.2001 98.9369 30.4001C97.4702 29.5734 96.3235 28.4001 95.4969 26.8801C94.6702 25.3601 94.2569 23.5468 94.2569 21.4401C94.2569 19.2534 94.7369 17.4001 95.6969 15.8801C96.6569 14.3334 97.8835 13.1601 99.3769 12.3601C100.897 11.5601 102.484 11.1601 104.137 11.1601ZM104.017 11.9601C103.244 11.9601 102.577 12.2001 102.017 12.6801C101.484 13.1334 101.057 13.9601 100.737 15.1601C100.444 16.3334 100.284 18.0001 100.257 20.1601H107.097C107.364 17.2534 107.257 15.1601 106.777 13.8801C106.297 12.6001 105.377 11.9601 104.017 11.9601ZM114.37 31.0001V30.6001L114.97 30.4401C115.504 30.2801 115.864 30.0401 116.05 29.7201C116.264 29.4001 116.37 28.9868 116.37 28.4801V15.9601C116.37 15.3734 116.264 14.9468 116.05 14.6801C115.864 14.3868 115.504 14.1868 114.97 14.0801L114.37 13.9201V13.5201L121.25 11.2001L121.65 11.6001L122.01 15.0401V15.3601C122.384 14.6134 122.864 13.9334 123.45 13.3201C124.064 12.6801 124.73 12.1601 125.45 11.7601C126.197 11.3601 126.93 11.1601 127.65 11.1601C128.664 11.1601 129.437 11.4401 129.97 12.0001C130.504 12.5601 130.77 13.2668 130.77 14.1201C130.77 15.0268 130.504 15.7334 129.97 16.2401C129.464 16.7201 128.85 16.9601 128.13 16.9601C127.01 16.9601 126.024 16.4001 125.17 15.2801L125.09 15.2001C124.824 14.8268 124.517 14.6268 124.17 14.6001C123.824 14.5468 123.504 14.7068 123.21 15.0801C122.944 15.3201 122.717 15.6134 122.53 15.9601C122.37 16.2801 122.21 16.6534 122.05 17.0801V28.2401C122.05 29.3068 122.517 29.9734 123.45 30.2401L124.73 30.6001V31.0001H114.37ZM132.027 31.0001V30.6001L132.587 30.4401C133.52 30.1734 133.987 29.5201 133.987 28.4801V15.9601C133.987 15.3734 133.893 14.9468 133.707 14.6801C133.52 14.3868 133.16 14.1868 132.627 14.0801L132.027 13.9201V13.5201L138.867 11.2001L139.267 11.6001L139.587 14.0001C140.52 13.1734 141.573 12.4934 142.747 11.9601C143.92 11.4268 145.08 11.1601 146.227 11.1601C147.987 11.1601 149.333 11.6401 150.267 12.6001C151.227 13.5601 151.707 15.0268 151.707 17.0001V28.5201C151.707 29.5601 152.213 30.2134 153.227 30.4801L153.587 30.6001V31.0001H144.147V30.6001L144.667 30.4401C145.6 30.1468 146.067 29.4934 146.067 28.4801V15.7201C146.067 14.0134 145.213 13.1601 143.507 13.1601C142.333 13.1601 141.053 13.7468 139.667 14.9201V28.5201C139.667 29.5601 140.133 30.2134 141.067 30.4801L141.427 30.6001V31.0001H132.027ZM165.272 31.6001C163.245 31.6001 161.485 31.1868 159.992 30.3601C158.498 29.5068 157.338 28.3068 156.512 26.7601C155.712 25.2134 155.312 23.4001 155.312 21.3201C155.312 19.2401 155.738 17.4401 156.592 15.9201C157.472 14.4001 158.658 13.2268 160.152 12.4001C161.672 11.5734 163.378 11.1601 165.272 11.1601C167.165 11.1601 168.858 11.5734 170.352 12.4001C171.845 13.2001 173.018 14.3601 173.872 15.8801C174.752 17.4001 175.192 19.2134 175.192 21.3201C175.192 23.4268 174.778 25.2534 173.952 26.8001C173.152 28.3201 172.005 29.5068 170.512 30.3601C169.045 31.1868 167.298 31.6001 165.272 31.6001ZM165.272 30.8001C166.205 30.8001 166.952 30.5334 167.512 30.0001C168.072 29.4668 168.472 28.5201 168.712 27.1601C168.978 25.8001 169.112 23.8801 169.112 21.4001C169.112 18.8934 168.978 16.9601 168.712 15.6001C168.472 14.2401 168.072 13.2934 167.512 12.7601C166.952 12.2268 166.205 11.9601 165.272 11.9601C164.338 11.9601 163.578 12.2268 162.992 12.7601C162.432 13.2934 162.018 14.2401 161.752 15.6001C161.512 16.9601 161.392 18.8934 161.392 21.4001C161.392 23.8801 161.512 25.8001 161.752 27.1601C162.018 28.5201 162.432 29.4668 162.992 30.0001C163.578 30.5334 164.338 30.8001 165.272 30.8001Z" fill="#292F36"/>
<path d="M0 34.0003H13.4588V24.499C13.4588 22.4853 15.0898 20.8543 17.1035 20.8543C19.1172 20.8543 20.7482 22.4853 20.7482 24.499V34.0003H33.9975V0C15.2211 0 0 15.2211 0 34.0003Z" fill="#CDA274"/>
</svg>
